<svg xmlns="http://www.w3.org/2000/svg" width="500" height="500">
  <path d="M0 0v500h500V0z" style="fill:#010101;stroke:none"/>
  <path d="M381 126c4.469 1.875 10.191 1 15 1h30c-4.469-1.875-10.191-1-15-1z" style="fill:#414141;stroke:none"/>
  <path d="M381 127v40c3.206-7.639 1-19.729 1-28 0-3.983.552-8.301-1-12" style="fill:#adadad;stroke:none"/>
  <path d="M382 127v40h43v-40z" style="fill:#fff;stroke:none"/>
  <path d="M425 127v40c3.206-7.639 1-19.729 1-28 0-3.983.552-8.301-1-12" style="fill:#afafaf;stroke:none"/>
  <path d="m381 167 1 1z" style="fill:#818181;stroke:none"/>
  <path d="M382 167c4.215 1.769 9.465 1 14 1h29c-4.215-1.769-9.464-1-14-1z" style="fill:#c1c1c1;stroke:none"/>
  <path d="m425 167 1 1z" style="fill:#838383;stroke:none"/>
  <path d="M251 188c2.89 1.213 5.874.998 9 1-2.89-1.213-5.874-.998-9-1" style="fill:#3d3d3d;stroke:none"/>
  <path d="M238.667 189.333c-.445.445.611.389.666.334.445-.445-.611-.389-.666-.334" style="fill:#474747;stroke:none"/>
  <path d="M240 189c1.248.685 1.548.749 3 1-1.248-.685-1.548-.749-3-1" style="fill:#7b7b7b;stroke:none"/>
  <path d="M243.667 189.333c-.445.445.611.389.666.334.445-.445-.611-.389-.666-.334" style="fill:#c3c3c3;stroke:none"/>
  <path d="M170 243c13.13.271 27.09 2.595 40 5 3.333-5.626 6.613-10.673 12.015-14.56 18.342-13.2 56.342-14.368 66.811 9.56 2.277 5.204 2.174 10.44 2.174 16-10.59.088-21.625 2.141-32 4.2-36.476 7.238-84.458 19.661-92.996 61.8-1.12 5.527-1.396 11.377-.833 17 2.204 22.033 20.2 36.371 40.829 40.789 30.232 6.475 63.91-.585 87-21.789 1.311 4.656 2.024 10.087 5.394 13.787 12.684 13.926 38.518 8.248 54.606 6.213v-28c-2.393.395-4.574.66-7.002.37C328.32 351.255 334 324.83 334 312v-46c0-20.831-.208-41.179-16.015-56.985-12.563-12.564-30.713-17.712-47.985-19.101-33.82-2.718-68.543 3.942-89.841 33.086-4.413 6.039-8.421 12.681-10.159 20" style="fill:#fff;stroke:none"/>
  <path d="M266 189c1.248.685 1.548.749 3 1-1.248-.685-1.548-.749-3-1" style="fill:#c3c3c3;stroke:none"/>
  <path d="M269 189c1.248.685 1.548.749 3 1-1.248-.685-1.548-.749-3-1" style="fill:#858585;stroke:none"/>
  <path d="M272.667 189.333c-.445.445.611.389.666.334.445-.445-.611-.389-.666-.334" style="fill:#434343;stroke:none"/>
  <path d="M232 190c1.248.685 1.548.749 3 1-1.248-.685-1.548-.749-3-1" style="fill:#7b7b7b;stroke:none"/>
  <path d="M235.667 190.333c-.445.445.611.389.666.334.445-.445-.611-.389-.666-.334" style="fill:#e3e3e3;stroke:none"/>
  <path d="m276 190 1 1z" style="fill:#c1c1c1;stroke:none"/>
  <path d="m277 190 1 1z" style="fill:#959595;stroke:none"/>
  <path d="m278 190 1 1z" style="fill:#676767;stroke:none"/>
  <path d="m279 190 1 1z" style="fill:#3b3b3b;stroke:none"/>
  <path d="m228 191 1 1z" style="fill:#696969;stroke:none"/>
  <path d="m229 191 1 1z" style="fill:#ababab;stroke:none"/>
  <path d="m282 191 1 1z" style="fill:#afafaf;stroke:none"/>
  <path d="m283 191 1 1z" style="fill:#737373;stroke:none"/>
  <path d="m284 191 1 1z" style="fill:#3b3b3b;stroke:none"/>
  <path d="m224 192 1 1z" style="fill:#676767;stroke:none"/>
  <path d="m225 192 1 1z" style="fill:#a9a9a9;stroke:none"/>
  <path d="m286 192 1 1z" style="fill:#c7c7c7;stroke:none"/>
  <path d="m287 192 1 1z" style="fill:#8d8d8d;stroke:none"/>
  <path d="m288 192 1 1z" style="fill:#555;stroke:none"/>
  <path d="m220 193 1 1z" style="fill:#2b2b2b;stroke:none"/>
  <path d="m221 193 1 1z" style="fill:#797979;stroke:none"/>
  <path d="m222 193 1 1z" style="fill:#c7c7c7;stroke:none"/>
  <path d="m290 193 1 1z" style="fill:#d1d1d1;stroke:none"/>
  <path d="m291 193 1 1z" style="fill:#797979;stroke:none"/>
  <path d="m217 194 1 1z" style="fill:#414141;stroke:none"/>
  <path d="m218 194 1 1z" style="fill:#8f8f8f;stroke:none"/>
  <path d="m293 194 1 1z" style="fill:#c9c9c9;stroke:none"/>
  <path d="m294 194 1 1z" style="fill:#717171;stroke:none"/>
  <path d="M381 194v186c1.981-4.72 1-10.92 1-16V208c0-4.536.769-9.785-1-14" style="fill:#adadad;stroke:none"/>
  <path d="M382 194v186h43V194z" style="fill:#fff;stroke:none"/>
  <path d="M425 194v186c1.981-4.72 1-10.92 1-16V208c0-4.536.769-9.785-1-14" style="fill:#afafaf;stroke:none"/>
  <path d="m215 195 1 1z" style="fill:#7b7b7b;stroke:none"/>
  <path d="m296 195 1 1z" style="fill:#b1b1b1;stroke:none"/>
  <path d="m297 195 1 1z" style="fill:#414141;stroke:none"/>
  <path d="m213 196 1 1z" style="fill:#999;stroke:none"/>
  <path d="m298 196 1 1z" style="fill:#d3d3d3;stroke:none"/>
  <path d="m299 196 1 1z" style="fill:#636363;stroke:none"/>
  <path d="m210 197 1 1z" style="fill:#2d2d2d;stroke:none"/>
  <path d="m211 197 1 1z" style="fill:#afafaf;stroke:none"/>
  <path d="m301 197 1 1z" style="fill:#858585;stroke:none"/>
  <path d="m209 198 1 1z" style="fill:#adadad;stroke:none"/>
  <path d="m303 198 1 1z" style="fill:#8b8b8b;stroke:none"/>
  <path d="m207 199 1 1z" style="fill:#ababab;stroke:none"/>
  <path d="m305 199 1 1z" style="fill:#676767;stroke:none"/>
  <path d="m205 200 1 1z" style="fill:#959595;stroke:none"/>
  <path d="m306 200 1 1z" style="fill:#d5d5d5;stroke:none"/>
  <path d="m307 200 1 1z" style="fill:#3f3f3f;stroke:none"/>
  <path d="m203 201 1 1z" style="fill:#5d5d5d;stroke:none"/>
  <path d="m308 201 1 1z" style="fill:#b1b1b1;stroke:none"/>
  <path d="m202 202 1 1z" style="fill:#c5c5c5;stroke:none"/>
  <path d="m310 202 1 1z" style="fill:#6b6b6b;stroke:none"/>
  <path d="m200 203 1 1z" style="fill:#858585;stroke:none"/>
  <path d="m311 203 1 1z" style="fill:#afafaf;stroke:none"/>
  <path d="m199 204 1 1z" style="fill:#c7c7c7;stroke:none"/>
  <path d="m313 204 1 1z" style="fill:#333;stroke:none"/>
  <path d="m197 205 1 1z" style="fill:#4d4d4d;stroke:none"/>
  <path d="m314 205 1 1z" style="fill:#777;stroke:none"/>
  <path d="m196 206 1 1z" style="fill:#919191;stroke:none"/>
  <path d="m315 206 1 1z" style="fill:#939393;stroke:none"/>
  <path d="m195 207 1 1z" style="fill:#cbcbcb;stroke:none"/>
  <path d="m316 207 1 1z" style="fill:#a1a1a1;stroke:none"/>
  <path d="m317 208 1 1z" style="fill:#a7a7a7;stroke:none"/>
  <path d="m192 209 1 1z" style="fill:#3f3f3f;stroke:none"/>
  <path d="m318 209 1 1z" style="fill:#afafaf;stroke:none"/>
  <path d="m191 210 1 1z" style="fill:#616161;stroke:none"/>
  <path d="m319 210 1 1z" style="fill:#a3a3a3;stroke:none"/>
  <path d="m190 211 1 1z" style="fill:#757575;stroke:none"/>
  <path d="m320 211 1 1z" style="fill:#737373;stroke:none"/>
  <path d="m189 212 1 1z" style="fill:#818181;stroke:none"/>
  <path d="m321 212 1 1z" style="fill:#474747;stroke:none"/>
  <path d="m188 213 1 1zm-1 1 1 1z" style="fill:#8b8b8b;stroke:none"/>
  <path d="m186 215 1 1z" style="fill:#939393;stroke:none"/>
  <path d="m323 215 1 1z" style="fill:#b3b3b3;stroke:none"/>
  <path d="m185 216 1 1z" style="fill:#7f7f7f;stroke:none"/>
  <path d="m324 216 1 1z" style="fill:#555;stroke:none"/>
  <path d="m184 217 1 1z" style="fill:#5b5b5b;stroke:none"/>
  <path d="m183 218 1 1z" style="fill:#393939;stroke:none"/>
  <path d="m325 218 1 1z" style="fill:#9f9f9f;stroke:none"/>
  <path d="m326 219 1 1z" style="fill:#3f3f3f;stroke:none"/>
  <path d="m326 220 1 1z" style="fill:#d5d5d5;stroke:none"/>
  <path d="m181 221 1 1z" style="fill:#bdbdbd;stroke:none"/>
  <path d="m327 221 1 1z" style="fill:#575757;stroke:none"/>
  <path d="m180 222 1 1z" style="fill:#717171;stroke:none"/>
  <path d="m327 222 1 1z" style="fill:#d5d5d5;stroke:none"/>
  <path d="m179 223 1 1z" style="fill:#313131;stroke:none"/>
  <path d="m328 223 1 1z" style="fill:#575757;stroke:none"/>
  <path d="M248 224c1.248.685 1.548.749 3 1-1.248-.685-1.548-.749-3-1" style="fill:#e1e1e1;stroke:none"/>
  <path d="M251 224c1.248.685 1.548.749 3 1-1.248-.685-1.548-.749-3-1" style="fill:#c1c1c1;stroke:none"/>
  <path d="M254 224c1.248.685 1.548.749 3 1-1.248-.685-1.548-.749-3-1" style="fill:#e7e7e7;stroke:none"/>
  <path d="m328 224 1 1z" style="fill:#d5d5d5;stroke:none"/>
  <path d="m178 225 1 1z" style="fill:#9f9f9f;stroke:none"/>
  <path d="M241 225c1.248.685 1.548.749 3 1-1.248-.685-1.548-.749-3-1" style="fill:#a3a3a3;stroke:none"/>
  <path d="M244.667 225.333c-.445.445.611.389.666.334.445-.445-.611-.389-.666-.334" style="fill:#252525;stroke:none"/>
  <path d="M259 225c1.506.683 2.315.826 4 1-1.506-.683-2.315-.826-4-1" style="fill:#292929;stroke:none"/>
  <path d="m263 225 1 1z" style="fill:#7b7b7b;stroke:none"/>
  <path d="m264 225 1 1z" style="fill:#a9a9a9;stroke:none"/>
  <path d="m329 225 1 1z" style="fill:#555;stroke:none"/>
  <path d="m177 226 1 1z" style="fill:#474747;stroke:none"/>
  <path d="m237 226 1 1z" style="fill:#afafaf;stroke:none"/>
  <path d="m238 226 1 1z" style="fill:#6f6f6f;stroke:none"/>
  <path d="m239 226 1 1z" style="fill:#2f2f2f;stroke:none"/>
  <path d="m267 226 1 1z" style="fill:#474747;stroke:none"/>
  <path d="m268 226 1 1z" style="fill:#898989;stroke:none"/>
  <path d="m269 226 1 1z" style="fill:#cdcdcd;stroke:none"/>
  <path d="m329 226 1 1z" style="fill:#c5c5c5;stroke:none"/>
  <path d="m233 227 1 1z" style="fill:#bdbdbd;stroke:none"/>
  <path d="m234 227 1 1z" style="fill:#6d6d6d;stroke:none"/>
  <path d="m235 227 1 1z" style="fill:#2f2f2f;stroke:none"/>
  <path d="m271 227 1 1z" style="fill:#7f7f7f;stroke:none"/>
  <path d="m176 228 1 1z" style="fill:#8b8b8b;stroke:none"/>
  <path d="m230 228 1 1z" style="fill:#c1c1c1;stroke:none"/>
  <path d="m231 228 1 1z" style="fill:#6b6b6b;stroke:none"/>
  <path d="m273 228 1 1z" style="fill:#4f4f4f;stroke:none"/>
  <path d="m274 228 1 1z" style="fill:#b7b7b7;stroke:none"/>
  <path d="m330 228 1 1z" style="fill:#7d7d7d;stroke:none"/>
  <path d="m175 229 1 1z" style="fill:#2d2d2d;stroke:none"/>
  <path d="m228 229 1 1z" style="fill:#737373;stroke:none"/>
  <path d="m276 229 1 1z" style="fill:#898989;stroke:none"/>
  <path d="m175 230 1 1z" style="fill:#cdcdcd;stroke:none"/>
  <path d="m226 230 1 1z" style="fill:#777;stroke:none"/>
  <path d="m278 230 1 1z" style="fill:#9d9d9d;stroke:none"/>
  <path d="m331 230 1 1z" style="fill:#333;stroke:none"/>
  <path d="m174 231 1 1z" style="fill:#5d5d5d;stroke:none"/>
  <path d="m224 231 1 1z" style="fill:#898989;stroke:none"/>
  <path d="m279 231 1 1z" style="fill:#515151;stroke:none"/>
  <path d="m331 231 1 1z" style="fill:#8f8f8f;stroke:none"/>
  <path d="m281 232 1 1z" style="fill:#c3c3c3;stroke:none"/>
  <path d="m173 233 1 1z" style="fill:#6b6b6b;stroke:none"/>
  <path d="m221 233 1 1z" style="fill:#adadad;stroke:none"/>
  <path d="m282 233 1 1z" style="fill:#999;stroke:none"/>
  <path d="m220 234 1 1z" style="fill:#777;stroke:none"/>
  <path d="m283 234 1 1z" style="fill:#a7a7a7;stroke:none"/>
  <path d="m332 234 1 1z" style="fill:#595959;stroke:none"/>
  <path d="m172 235 1 1z" style="fill:#797979;stroke:none"/>
  <path d="m219 235 1 1z" style="fill:#3f3f3f;stroke:none"/>
  <path d="m284 235 1 1z" style="fill:#b3b3b3;stroke:none"/>
  <path d="m332 235 1 1z" style="fill:#979797;stroke:none"/>
  <path d="m217 236 1 1z" style="fill:#cfcfcf;stroke:none"/>
  <path d="m285 236 1 1z" style="fill:#bfbfbf;stroke:none"/>
  <path d="m171 237 1 1z" style="fill:#7b7b7b;stroke:none"/>
  <path d="m286 238 1 1z" style="fill:#6f6f6f;stroke:none"/>
  <path d="m333 238 1 1z" style="fill:#515151;stroke:none"/>
  <path d="m170 239 1 1z" style="fill:#555;stroke:none"/>
  <path d="m215 239 1 1z" style="fill:#4b4b4b;stroke:none"/>
  <path d="M333.333 239.667c-.055.055-.111 1.111.334.666.055-.055.111-1.111-.334-.666" style="fill:#a3a3a3;stroke:none"/>
  <path d="m170 240 1 1z" style="fill:#c3c3c3;stroke:none"/>
  <path d="m214 240 1 1z" style="fill:#8b8b8b;stroke:none"/>
  <path d="m287 240 1 1z" style="fill:#474747;stroke:none"/>
  <path d="m213 241 1 1z" style="fill:#c1c1c1;stroke:none"/>
  <path d="m288 241 1 1z" style="fill:#b3b3b3;stroke:none"/>
  <path d="M333.333 241.667c-.055.055-.111 1.111.334.666.055-.055.111-1.111-.334-.666" style="fill:#e5e5e5;stroke:none"/>
  <path d="m169 242 1 1z" style="fill:#737373;stroke:none"/>
  <path d="m288 242 1 1z" style="fill:#3f3f3f;stroke:none"/>
  <path d="M172.667 243.333c-.445.445.611.389.666.334.445-.445-.611-.389-.666-.334" style="fill:#4b4b4b;stroke:none"/>
  <path d="M174 243c1.248.685 1.548.749 3 1-1.248-.685-1.548-.749-3-1" style="fill:#8d8d8d;stroke:none"/>
  <path d="m212 243 1 1z" style="fill:#878787;stroke:none"/>
  <path d="M180 244c1.248.685 1.549.749 3 1-1.248-.685-1.548-.749-3-1" style="fill:#535353;stroke:none"/>
  <path d="M183.667 244.333c-.445.445.611.389.666.334.445-.445-.611-.389-.666-.334" style="fill:#b7b7b7;stroke:none"/>
  <path d="m289 244 1 1z" style="fill:#a1a1a1;stroke:none"/>
  <path d="M334.333 244.667c-.055.055-.111 1.111.334.666.055-.055.111-1.111-.334-.666" style="fill:#494949;stroke:none"/>
  <path d="M188 245c1.248.685 1.548.749 3 1-1.248-.685-1.548-.749-3-1" style="fill:#5b5b5b;stroke:none"/>
  <path d="M191.667 245.333c-.445.445.611.389.666.334.445-.445-.611-.389-.666-.334" style="fill:#bfbfbf;stroke:none"/>
  <path d="m211 245 1 1z" style="fill:#656565;stroke:none"/>
  <path d="m289 245 1 1z" style="fill:#535353;stroke:none"/>
  <path d="M196 246c1.248.685 1.549.749 3 1-1.248-.685-1.548-.749-3-1" style="fill:#636363;stroke:none"/>
  <path d="M199.667 246.333c-.445.445.611.389.666.334.445-.445-.611-.389-.666-.334" style="fill:#c7c7c7;stroke:none"/>
  <path d="M334 246v3c.696-1.554.696-1.446 0-3" style="fill:#6b6b6b;stroke:none"/>
  <path d="M203.667 247.333c-.445.445.611.389.666.334.445-.445-.611-.389-.666-.334" style="fill:#4b4b4b;stroke:none"/>
  <path d="M205 247c1.248.685 1.549.749 3 1-1.248-.685-1.548-.749-3-1" style="fill:#8d8d8d;stroke:none"/>
  <path d="m210 247 1 1z" style="fill:#3f3f3f;stroke:none"/>
  <path d="M290.333 247.667c-.055.055-.111 1.111.334.666.055-.055.111-1.111-.334-.666" style="fill:#b7b7b7;stroke:none"/>
  <path d="M290.333 249.667c-.055.055-.111 1.111.334.666.055-.055.111-1.111-.334-.666" style="fill:#878787;stroke:none"/>
  <path d="M334 249v95c2.599-6.194 1-15.314 1-22v-48c0-7.48 1.903-18.081-1-25" style="fill:#a9a9a9;stroke:none"/>
  <path d="M290 251v7c1.059-2.534 1.059-4.466 0-7" style="fill:#5f5f5f;stroke:none"/>
  <path d="M286 258c1.248.685 1.548.749 3 1-1.248-.685-1.548-.749-3-1" style="fill:#575757;stroke:none"/>
  <path d="m289 258 1 1z" style="fill:#9b9b9b;stroke:none"/>
  <path d="m290 258 1 1z" style="fill:#d1d1d1;stroke:none"/>
  <path d="M278 259c1.248.685 1.548.749 3 1-1.248-.685-1.548-.749-3-1" style="fill:#474747;stroke:none"/>
  <path d="M281 259c1.248.685 1.548.749 3 1-1.248-.685-1.548-.749-3-1" style="fill:#adadad;stroke:none"/>
  <path d="M272.667 260.333c-.445.445.611.389.666.334.445-.445-.611-.389-.666-.334" style="fill:#6f6f6f;stroke:none"/>
  <path d="M274.667 260.333c-.445.445.611.389.666.334.445-.445-.611-.389-.666-.334" style="fill:#bfbfbf;stroke:none"/>
  <path d="M265 261c1.248.685 1.548.749 3 1-1.248-.685-1.548-.749-3-1" style="fill:#575757;stroke:none"/>
  <path d="M268.667 261.333c-.445.445.611.389.666.334.445-.445-.611-.389-.666-.334" style="fill:#cfcfcf;stroke:none"/>
  <path d="m260 262 1 1z" style="fill:#414141;stroke:none"/>
  <path d="m261 262 1 1z" style="fill:#737373;stroke:none"/>
  <path d="m262 262 1 1z" style="fill:#a3a3a3;stroke:none"/>
  <path d="m255 263 1 1z" style="fill:#494949;stroke:none"/>
  <path d="m256 263 1 1z" style="fill:#797979;stroke:none"/>
  <path d="m257 263 1 1z" style="fill:#ababab;stroke:none"/>
  <path d="m250 264 1 1z" style="fill:#4f4f4f;stroke:none"/>
  <path d="m251 264 1 1z" style="fill:#818181;stroke:none"/>
  <path d="m252 264 1 1z" style="fill:#b3b3b3;stroke:none"/>
  <path d="m245 265 1 1z" style="fill:#2b2b2b;stroke:none"/>
  <path d="m246 265 1 1z" style="fill:#6b6b6b;stroke:none"/>
  <path d="m247 265 1 1z" style="fill:#a9a9a9;stroke:none"/>
  <path d="m241 266 1 1z" style="fill:#313131;stroke:none"/>
  <path d="m242 266 1 1z" style="fill:#6f6f6f;stroke:none"/>
  <path d="m243 266 1 1z" style="fill:#afafaf;stroke:none"/>
  <path d="m237 267 1 1z" style="fill:#373737;stroke:none"/>
  <path d="m238 267 1 1z" style="fill:#757575;stroke:none"/>
  <path d="m239 267 1 1z" style="fill:#b5b5b5;stroke:none"/>
  <path d="m234 268 1 1z" style="fill:#5f5f5f;stroke:none"/>
  <path d="m235 268 1 1z" style="fill:#ababab;stroke:none"/>
  <path d="m230 269 1 1z" style="fill:#2f2f2f;stroke:none"/>
  <path d="m231 269 1 1z" style="fill:#7b7b7b;stroke:none"/>
  <path d="m232 269 1 1z" style="fill:#c7c7c7;stroke:none"/>
  <path d="m227 270 1 1z" style="fill:#4b4b4b;stroke:none"/>
  <path d="m228 270 1 1z" style="fill:#979797;stroke:none"/>
  <path d="m224 271 1 1z" style="fill:#676767;stroke:none"/>
  <path d="m225 271 1 1z" style="fill:#b3b3b3;stroke:none"/>
  <path d="m221 272 1 1z" style="fill:#616161;stroke:none"/>
  <path d="m222 272 1 1z" style="fill:#c1c1c1;stroke:none"/>
  <path d="m218 273 1 1z" style="fill:#414141;stroke:none"/>
  <path d="m219 273 1 1z" style="fill:#a1a1a1;stroke:none"/>
  <path d="m216 274 1 1z" style="fill:#818181;stroke:none"/>
  <path d="m213 275 1 1z" style="fill:#474747;stroke:none"/>
  <path d="m214 275 1 1z" style="fill:#b7b7b7;stroke:none"/>
  <path d="m211 276 1 1z" style="fill:#696969;stroke:none"/>
  <path d="m209 277 1 1z" style="fill:#898989;stroke:none"/>
  <path d="m206 278 1 1z" style="fill:#3b3b3b;stroke:none"/>
  <path d="m207 278 1 1z" style="fill:#ababab;stroke:none"/>
  <path d="m204 279 1 1z" style="fill:#353535;stroke:none"/>
  <path d="m205 279 1 1z" style="fill:#c3c3c3;stroke:none"/>
  <path d="m203 280 1 1z" style="fill:#b3b3b3;stroke:none"/>
  <path d="m201 281 1 1z" style="fill:#a5a5a5;stroke:none"/>
  <path d="m199 282 1 1z" style="fill:#999;stroke:none"/>
  <path d="m197 283 1 1z" style="fill:#8b8b8b;stroke:none"/>
  <path d="m195 284 1 1z" style="fill:#5d5d5d;stroke:none"/>
  <path d="m194 285 1 1z" style="fill:#b9b9b9;stroke:none"/>
  <path d="m192 286 1 1z" style="fill:#656565;stroke:none"/>
  <path d="m191 287 1 1z" style="fill:#bfbfbf;stroke:none"/>
  <path d="m189 288 1 1z" style="fill:#6b6b6b;stroke:none"/>
  <path d="m188 289 1 1z" style="fill:#b5b5b5;stroke:none"/>
  <path d="m187 290 1 1z" style="fill:#d3d3d3;stroke:none"/>
  <path d="m185 291 1 1z" style="fill:#313131;stroke:none"/>
  <path d="m184 292 1 1z" style="fill:#4f4f4f;stroke:none"/>
  <path d="m183 293 1 1z" style="fill:#7d7d7d;stroke:none"/>
  <path d="m182 294 1 1z" style="fill:#8f8f8f;stroke:none"/>
  <path d="M286.667 294.333c-.445.445.611.389.666.334.445-.445-.611-.389-.666-.334" style="fill:#a9a9a9;stroke:none"/>
  <path d="M288 294c2.462 4.426 2 9.06 2 14v23c1.661-3.959 1-8.74 1-13v-24z" style="fill:#5f5f5f;stroke:none"/>
  <path d="m181 295 1 1z" style="fill:#7d7d7d;stroke:none"/>
  <path d="M278 295c1.248.685 1.548.749 3 1-1.248-.685-1.548-.749-3-1" style="fill:#b1b1b1;stroke:none"/>
  <path d="M281 295c1.248.685 1.548.749 3 1-1.248-.685-1.548-.749-3-1" style="fill:#4d4d4d;stroke:none"/>
  <path d="M290 295c-11.335.234-22.892 2.626-34 4.804-8.179 1.604-16.237 3.973-24 7.008-6.692 2.616-13.764 6.462-18.211 12.278-5.699 7.454-6.278 20.424 2.23 26.091 4.781 3.185 10.455 3.556 15.981 3.973 14.024 1.059 28.145-2.039 41-7.582 4.98-2.148 12.141-5.242 15.397-9.757C290.745 328.558 290 323.786 290 320z" style="fill:#010101;stroke:none"/>
  <path d="m180 296 1 1z" style="fill:#6b6b6b;stroke:none"/>
  <path d="m272 296 1 1z" style="fill:#b3b3b3;stroke:none"/>
  <path d="M273.667 296.333c-.445.445.611.389.666.334.445-.445-.611-.389-.666-.334" style="fill:#5d5d5d;stroke:none"/>
  <path d="m179 297 1 1z" style="fill:#575757;stroke:none"/>
  <path d="M266.667 297.333c-.445.445.611.389.666.334.445-.445-.611-.389-.666-.334" style="fill:#878787;stroke:none"/>
  <path d="M268.667 297.333c-.445.445.611.389.666.334.445-.445-.611-.389-.666-.334" style="fill:#313131;stroke:none"/>
  <path d="m178 298 1 1z" style="fill:#515151;stroke:none"/>
  <path d="M260.667 298.333c-.445.445.611.389.666.334.445-.445-.611-.389-.666-.334" style="fill:#878787;stroke:none"/>
  <path d="M262.667 298.333c-.445.445.611.389.666.334.445-.445-.611-.389-.666-.334" style="fill:#333;stroke:none"/>
  <path d="m177 299 1 1z" style="fill:#3f3f3f;stroke:none"/>
  <path d="m255 299 1 1z" style="fill:#b7b7b7;stroke:none"/>
  <path d="m256 299 1 1z" style="fill:#818181;stroke:none"/>
  <path d="m257 299 1 1z" style="fill:#4b4b4b;stroke:none"/>
  <path d="m250 300 1 1z" style="fill:#cbcbcb;stroke:none"/>
  <path d="m251 300 1 1z" style="fill:#919191;stroke:none"/>
  <path d="m252 300 1 1z" style="fill:#575757;stroke:none"/>
  <path d="m176 301 1 1z" style="fill:#c3c3c3;stroke:none"/>
  <path d="m246 301 1 1z" style="fill:#adadad;stroke:none"/>
  <path d="m247 301 1 1z" style="fill:#757575;stroke:none"/>
  <path d="m248 301 1 1z" style="fill:#3d3d3d;stroke:none"/>
  <path d="m175 302 1 1z" style="fill:#7b7b7b;stroke:none"/>
  <path d="m243 302 1 1z" style="fill:#999;stroke:none"/>
  <path d="m244 302 1 1z" style="fill:#474747;stroke:none"/>
  <path d="m174 303 1 1z" style="fill:#333;stroke:none"/>
  <path d="m240 303 1 1z" style="fill:#8d8d8d;stroke:none"/>
  <path d="m241 303 1 1z" style="fill:#3d3d3d;stroke:none"/>
  <path d="m237 304 1 1z" style="fill:#8d8d8d;stroke:none"/>
  <path d="m238 304 1 1z" style="fill:#373737;stroke:none"/>
  <path d="m173 305 1 1z" style="fill:#999;stroke:none"/>
  <path d="m234 305 1 1z" style="fill:#959595;stroke:none"/>
  <path d="m235 305 1 1z" style="fill:#3d3d3d;stroke:none"/>
  <path d="m172 306 1 1z" style="fill:#454545;stroke:none"/>
  <path d="m231 306 1 1z" style="fill:#cfcfcf;stroke:none"/>
  <path d="m232 306 1 1z" style="fill:#636363;stroke:none"/>
  <path d="m229 307 1 1z" style="fill:#a7a7a7;stroke:none"/>
  <path d="m230 307 1 1z" style="fill:#3b3b3b;stroke:none"/>
  <path d="m171 308 1 1z" style="fill:#656565;stroke:none"/>
  <path d="m227 308 1 1z" style="fill:#a1a1a1;stroke:none"/>
  <path d="m225 309 1 1z" style="fill:#b1b1b1;stroke:none"/>
  <path d="m170 310 1 1z" style="fill:#616161;stroke:none"/>
  <path d="m223 310 1 1z" style="fill:#c5c5c5;stroke:none"/>
  <path d="m224 310 1 1z" style="fill:#373737;stroke:none"/>
  <path d="m222 311 1 1z" style="fill:#636363;stroke:none"/>
  <path d="m169 312 1 1z" style="fill:#5b5b5b;stroke:none"/>
  <path d="m220 312 1 1z" style="fill:#c5c5c5;stroke:none"/>
  <path d="m219 313 1 1z" style="fill:#8f8f8f;stroke:none"/>
  <path d="m168 314 1 1z" style="fill:#434343;stroke:none"/>
  <path d="m218 314 1 1z" style="fill:#575757;stroke:none"/>
  <path d="m168 315 1 1z" style="fill:#959595;stroke:none"/>
  <path d="m217 315 1 1z" style="fill:#2f2f2f;stroke:none"/>
  <path d="m215 316 1 1z" style="fill:#cdcdcd;stroke:none"/>
  <path d="m167 317 1 1z" style="fill:#3b3b3b;stroke:none"/>
  <path d="m167 318 1 1z" style="fill:#8f8f8f;stroke:none"/>
  <path d="m213 319 1 1z" style="fill:#373737;stroke:none"/>
  <path d="m166 320 1 1z" style="fill:#353535;stroke:none"/>
  <path d="m212 320 1 1z" style="fill:#7b7b7b;stroke:none"/>
  <path d="m166 321 1 1z" style="fill:#777;stroke:none"/>
  <path d="m166 322 1 1z" style="fill:#a7a7a7;stroke:none"/>
  <path d="m211 322 1 1z" style="fill:#575757;stroke:none"/>
  <path d="m210 323 1 1z" style="fill:#c9c9c9;stroke:none"/>
  <path d="M76 324c4.9691 2.085 11.6497 1 17 1h34c-4.969-2.085-11.65-1-17-1z" style="fill:#410d0d;stroke:none"/>
  <path d="m210 324 1 1z" style="fill:#595959;stroke:none"/>
  <path d="M76 325v56c1.7687-4.215 1-9.465 1-14v-27c0-4.809.8752-10.531-1-15" style="fill:#a31f1f;stroke:none"/>
  <path d="M77 325v55h50v-55z" style="fill:#ff3131;stroke:none"/>
  <path d="M127 325v56c1.769-4.215 1-9.465 1-14v-27c0-4.809.875-10.531-1-15" style="fill:#4f0f0f;stroke:none"/>
  <path d="m165 325 1 1z" style="fill:#393939;stroke:none"/>
  <path d="m165 326 1 1z" style="fill:#696969;stroke:none"/>
  <path d="m209 326 1 1z" style="fill:#c3c3c3;stroke:none"/>
  <path d="m165 327 1 1z" style="fill:#999;stroke:none"/>
  <path d="m209 327 1 1z" style="fill:#777;stroke:none"/>
  <path d="M209 328v3c.696-1.554.696-1.446 0-3" style="fill:#333;stroke:none"/>
  <path d="m289 331 1 1z" style="fill:#353535;stroke:none"/>
  <path d="M164.333 332.667c-.055.055-.111 1.111.334.666.055-.055.111-1.111-.334-.666" style="fill:#232323;stroke:none"/>
  <path d="m288 332 1 1z" style="fill:#818181;stroke:none"/>
  <path d="M209 333v3c.696-1.554.696-1.446 0-3" style="fill:#414141;stroke:none"/>
  <path d="m287 333 1 1z" style="fill:#cbcbcb;stroke:none"/>
  <path d="M164 334v5c.83-2.031.83-2.97 0-5" style="fill:#535353;stroke:none"/>
  <path d="m285 334 1 1z" style="fill:#636363;stroke:none"/>
  <path d="m284 335 1 1z" style="fill:#bdbdbd;stroke:none"/>
  <path d="m209 336 1 1z" style="fill:#8f8f8f;stroke:none"/>
  <path d="m282 336 1 1z" style="fill:#878787;stroke:none"/>
  <path d="m280 337 1 1z" style="fill:#555;stroke:none"/>
  <path d="m210 338 1 1z" style="fill:#353535;stroke:none"/>
  <path d="m279 338 1 1z" style="fill:#bdbdbd;stroke:none"/>
  <path d="M164 339v3c.696-1.554.696-1.446 0-3" style="fill:#2b2b2b;stroke:none"/>
  <path d="m210 339 1 1z" style="fill:#878787;stroke:none"/>
  <path d="m277 339 1 1z" style="fill:#9b9b9b;stroke:none"/>
  <path d="m275 340 1 1z" style="fill:#9d9d9d;stroke:none"/>
  <path d="m211 341 1 1z" style="fill:#bdbdbd;stroke:none"/>
  <path d="m273 341 1 1z" style="fill:#9d9d9d;stroke:none"/>
  <path d="m212 342 1 1z" style="fill:#676767;stroke:none"/>
  <path d="m270 342 1 1z" style="fill:#494949;stroke:none"/>
  <path d="m271 342 1 1z" style="fill:#b1b1b1;stroke:none"/>
  <path d="m213 343 1 1z" style="fill:#5d5d5d;stroke:none"/>
  <path d="m268 343 1 1z" style="fill:#797979;stroke:none"/>
  <path d="m165 344 1 1z" style="fill:#c5c5c5;stroke:none"/>
  <path d="m214 344 1 1z" style="fill:#959595;stroke:none"/>
  <path d="m265 344 1 1z" style="fill:#454545;stroke:none"/>
  <path d="m266 344 1 1z" style="fill:#adadad;stroke:none"/>
  <path d="M334.333 344.667c-.055.055-.111 1.111.334.666.055-.055.111-1.111-.334-.666" style="fill:#ddd;stroke:none"/>
  <path d="m165 345 1 1z" style="fill:#979797;stroke:none"/>
  <path d="m215 345 1 1z" style="fill:#c5c5c5;stroke:none"/>
  <path d="m262 345 1 1z" style="fill:#4b4b4b;stroke:none"/>
  <path d="m263 345 1 1z" style="fill:#a1a1a1;stroke:none"/>
  <path d="m165 346 1 1z" style="fill:#6b6b6b;stroke:none"/>
  <path d="m217 346 1 1z" style="fill:#a7a7a7;stroke:none"/>
  <path d="m218 346 1 1z" style="fill:#353535;stroke:none"/>
  <path d="m259 346 1 1z" style="fill:#595959;stroke:none"/>
  <path d="m260 346 1 1z" style="fill:#a9a9a9;stroke:none"/>
  <path d="m165 347 1 1z" style="fill:#3d3d3d;stroke:none"/>
  <path d="m219 347 1 1z" style="fill:#c5c5c5;stroke:none"/>
  <path d="m220 347 1 1z" style="fill:#696969;stroke:none"/>
  <path d="m254 347 1 1z" style="fill:#2f2f2f;stroke:none"/>
  <path d="m255 347 1 1z" style="fill:#656565;stroke:none"/>
  <path d="m256 347 1 1z" style="fill:#959595;stroke:none"/>
  <path d="m257 347 1 1z" style="fill:#cfcfcf;stroke:none"/>
  <path d="m335 347 1 1z" style="fill:#5d5d5d;stroke:none"/>
  <path d="m223 348 1 1z" style="fill:#979797;stroke:none"/>
  <path d="m224 348 1 1z" style="fill:#535353;stroke:none"/>
  <path d="M249 348c1.248.685 1.548.749 3 1-1.248-.685-1.548-.749-3-1" style="fill:#656565;stroke:none"/>
  <path d="m252 348 1 1z" style="fill:#c3c3c3;stroke:none"/>
  <path d="m335 348 1 1z" style="fill:#ababab;stroke:none"/>
  <path d="m166 349 1 1z" style="fill:#d1d1d1;stroke:none"/>
  <path d="m227 349 1 1z" style="fill:#c1c1c1;stroke:none"/>
  <path d="m228 349 1 1z" style="fill:#8f8f8f;stroke:none"/>
  <path d="M229 349c1.248.685 1.548.749 3 1-1.248-.685-1.548-.749-3-1" style="fill:#3d3d3d;stroke:none"/>
  <path d="M232 349c1.248.685 1.548.749 3 1-1.248-.685-1.548-.749-3-1" style="fill:#1f1f1f;stroke:none"/>
  <path d="M237.667 349.333c-.445.445.611.389.666.334.445-.445-.611-.389-.666-.334" style="fill:#252525;stroke:none"/>
  <path d="M239.667 349.333c-.445.445.611.389.666.334.445-.445-.611-.389-.666-.334" style="fill:#474747;stroke:none"/>
  <path d="M241 349c1.248.685 1.548.749 3 1-1.248-.685-1.548-.749-3-1" style="fill:#696969;stroke:none"/>
  <path d="M244 349c1.248.685 1.549.749 3 1-1.248-.685-1.548-.749-3-1" style="fill:#b9b9b9;stroke:none"/>
  <path d="m336 349 1 1z" style="fill:#373737;stroke:none"/>
  <path d="m166 350 1 1z" style="fill:#7b7b7b;stroke:none"/>
  <path d="m338 351 1 1z" style="fill:#777;stroke:none"/>
  <path d="m167 352 1 1z" style="fill:#d3d3d3;stroke:none"/>
  <path d="M340.667 352.333c-.445.445.611.389.666.334.445-.445-.611-.389-.666-.334" style="fill:#5f5f5f;stroke:none"/>
  <path d="M342.667 352.333c-.445.445.611.389.666.334.445-.445-.611-.389-.666-.334" style="fill:#232323;stroke:none"/>
  <path d="m167 353 1 1z" style="fill:#7d7d7d;stroke:none"/>
  <path d="M346 353c1.769.779 3.036.912 5 1-1.769-.779-3.036-.912-5-1" style="fill:#c1c1c1;stroke:none"/>
  <path d="M353 353v28c2.604-6.207 2.604-21.793 0-28" style="fill:#b3b3b3;stroke:none"/>
  <path d="m168 355 1 1z" style="fill:#999;stroke:none"/>
  <path d="m169 357 1 1z" style="fill:#9f9f9f;stroke:none"/>
  <path d="m170 359 1 1z" style="fill:#8b8b8b;stroke:none"/>
  <path d="m171 361 1 1z" style="fill:#2f2f2f;stroke:none"/>
  <path d="m292 361 1 1z" style="fill:#656565;stroke:none"/>
  <path d="m172 362 1 1z" style="fill:#777;stroke:none"/>
  <path d="m291 362 1 1z" style="fill:#4b4b4b;stroke:none"/>
  <path d="m293 362 1 1z" style="fill:#a1a1a1;stroke:none"/>
  <path d="m173 363 1 1z" style="fill:#b3b3b3;stroke:none"/>
  <path d="m290 363 1 1z" style="fill:#333;stroke:none"/>
  <path d="m293 363 1 1z" style="fill:#6d6d6d;stroke:none"/>
  <path d="m174 364 1 1z" style="fill:#d1d1d1;stroke:none"/>
  <path d="m293 364 1 1z" style="fill:#3b3b3b;stroke:none"/>
  <path d="m287 365 1 1z" style="fill:#c9c9c9;stroke:none"/>
  <path d="m175 366 1 1z" style="fill:#2f2f2f;stroke:none"/>
  <path d="m286 366 1 1z" style="fill:#878787;stroke:none"/>
  <path d="m294 366 1 1z" style="fill:#cfcfcf;stroke:none"/>
  <path d="m176 367 1 1z" style="fill:#3d3d3d;stroke:none"/>
  <path d="m285 367 1 1z" style="fill:#3b3b3b;stroke:none"/>
  <path d="m294 367 1 1z" style="fill:#939393;stroke:none"/>
  <path d="m177 368 1 1z" style="fill:#333;stroke:none"/>
  <path d="m283 368 1 1z" style="fill:#adadad;stroke:none"/>
  <path d="m294 368 1 1z" style="fill:#575757;stroke:none"/>
  <path d="m178 369 1 1z" style="fill:#2f2f2f;stroke:none"/>
  <path d="m282 369 1 1z" style="fill:#5b5b5b;stroke:none"/>
  <path d="m280 370 1 1z" style="fill:#c5c5c5;stroke:none"/>
  <path d="m295 370 1 1z" style="fill:#cdcdcd;stroke:none"/>
  <path d="m181 371 1 1z" style="fill:#c5c5c5;stroke:none"/>
  <path d="m279 371 1 1z" style="fill:#5b5b5b;stroke:none"/>
  <path d="m295 371 1 1z" style="fill:#6b6b6b;stroke:none"/>
  <path d="m182 372 1 1z" style="fill:#898989;stroke:none"/>
  <path d="m277 372 1 1z" style="fill:#7d7d7d;stroke:none"/>
  <path d="m296 372 1 1z" style="fill:#cdcdcd;stroke:none"/>
  <path d="m183 373 1 1z" style="fill:#494949;stroke:none"/>
  <path d="m275 373 1 1z" style="fill:#999;stroke:none"/>
  <path d="m185 374 1 1z" style="fill:#a9a9a9;stroke:none"/>
  <path d="m273 374 1 1z" style="fill:#b7b7b7;stroke:none"/>
  <path d="m297 374 1 1z" style="fill:#6b6b6b;stroke:none"/>
  <path d="m186 375 1 1z" style="fill:#434343;stroke:none"/>
  <path d="m271 375 1 1z" style="fill:#a7a7a7;stroke:none"/>
  <path d="m272 375 1 1z" style="fill:#313131;stroke:none"/>
  <path d="m298 375 1 1z" style="fill:#717171;stroke:none"/>
  <path d="m188 376 1 1z" style="fill:#818181;stroke:none"/>
  <path d="m269 376 1 1z" style="fill:#878787;stroke:none"/>
  <path d="m299 376 1 1z" style="fill:#3d3d3d;stroke:none"/>
  <path d="m190 377 1 1z" style="fill:#959595;stroke:none"/>
  <path d="m267 377 1 1z" style="fill:#676767;stroke:none"/>
  <path d="m301 377 1 1z" style="fill:#a5a5a5;stroke:none"/>
  <path d="m192 378 1 1z" style="fill:#919191;stroke:none"/>
  <path d="m264 378 1 1z" style="fill:#b7b7b7;stroke:none"/>
  <path d="m265 378 1 1z" style="fill:#474747;stroke:none"/>
  <path d="m302 378 1 1z" style="fill:#373737;stroke:none"/>
  <path d="m303 378 1 1z" style="fill:#d1d1d1;stroke:none"/>
  <path d="m194 379 1 1z" style="fill:#737373;stroke:none"/>
  <path d="m261 379 1 1z" style="fill:#c5c5c5;stroke:none"/>
  <path d="m262 379 1 1z" style="fill:#717171;stroke:none"/>
  <path d="m304 379 1 1z" style="fill:#555;stroke:none"/>
  <path d="m305 379 1 1z" style="fill:#d1d1d1;stroke:none"/>
  <path d="M77 380c4.7199 1.981 10.9198 1 16 1h34c-4.72-1.981-10.92-1-16-1z" style="fill:#bf2525;stroke:none"/>
  <path d="m196 380 1 1z" style="fill:#434343;stroke:none"/>
  <path d="m197 380 1 1z" style="fill:#adadad;stroke:none"/>
  <path d="m258 380 1 1z" style="fill:#bfbfbf;stroke:none"/>
  <path d="m259 380 1 1z" style="fill:#6d6d6d;stroke:none"/>
  <path d="m306 380 1 1z" style="fill:#4d4d4d;stroke:none"/>
  <path d="m307 380 1 1z" style="fill:#cdcdcd;stroke:none"/>
  <path d="m381 380 1 1z" style="fill:#818181;stroke:none"/>
  <path d="M382 380c4.215 1.769 9.465 1 14 1h29c-4.215-1.769-9.464-1-14-1z" style="fill:#c1c1c1;stroke:none"/>
  <path d="m425 380 1 1z" style="fill:#838383;stroke:none"/>
  <path d="m199 381 1 1z" style="fill:#575757;stroke:none"/>
  <path d="m200 381 1 1z" style="fill:#9f9f9f;stroke:none"/>
  <path d="m255 381 1 1z" style="fill:#bbb;stroke:none"/>
  <path d="m256 381 1 1z" style="fill:#656565;stroke:none"/>
  <path d="m308 381 1 1z" style="fill:#3f3f3f;stroke:none"/>
  <path d="m309 381 1 1z" style="fill:#8d8d8d;stroke:none"/>
  <path d="m349 381 1 1z" style="fill:#a7a7a7;stroke:none"/>
  <path d="m350 381 1 1z" style="fill:#737373;stroke:none"/>
  <path d="m351 381 1 1z" style="fill:#393939;stroke:none"/>
  <path d="m202 382 1 1z" style="fill:#3b3b3b;stroke:none"/>
  <path d="m203 382 1 1z" style="fill:#878787;stroke:none"/>
  <path d="m204 382 1 1z" style="fill:#c9c9c9;stroke:none"/>
  <path d="m251 382 1 1z" style="fill:#b5b5b5;stroke:none"/>
  <path d="m252 382 1 1z" style="fill:#7d7d7d;stroke:none"/>
  <path d="m253 382 1 1z" style="fill:#434343;stroke:none"/>
  <path d="m312 382 1 1z" style="fill:#6d6d6d;stroke:none"/>
  <path d="M313.667 382.333c-.445.445.611.389.666.334.445-.445-.611-.389-.666-.334" style="fill:#c9c9c9;stroke:none"/>
  <path d="M342.667 382.333c-.445.445.611.389.666.334.445-.445-.611-.389-.666-.334" style="fill:#b7b7b7;stroke:none"/>
  <path d="M344 382c1.248.685 1.548.749 3 1-1.248-.685-1.548-.749-3-1" style="fill:#6d6d6d;stroke:none"/>
  <path d="m206 383 1 1z" style="fill:#2f2f2f;stroke:none"/>
  <path d="m207 383 1 1z" style="fill:#5f5f5f;stroke:none"/>
  <path d="m208 383 1 1z" style="fill:#8f8f8f;stroke:none"/>
  <path d="m209 383 1 1z" style="fill:#c1c1c1;stroke:none"/>
  <path d="m246 383 1 1z" style="fill:#d3d3d3;stroke:none"/>
  <path d="m247 383 1 1z" style="fill:#999;stroke:none"/>
  <path d="m248 383 1 1z" style="fill:#616161;stroke:none"/>
  <path d="M317 383c1.248.685 1.548.749 3 1-1.248-.685-1.548-.749-3-1" style="fill:#636363;stroke:none"/>
  <path d="M320.667 383.333c-.445.445.611.389.666.334.445-.445-.611-.389-.666-.334" style="fill:#b7b7b7;stroke:none"/>
  <path d="M322 383c1.248.685 1.548.749 3 1-1.248-.685-1.548-.749-3-1" style="fill:#dbdbdb;stroke:none"/>
  <path d="M330 383c1.248.685 1.548.749 3 1-1.248-.685-1.548-.749-3-1" style="fill:#cdcdcd;stroke:none"/>
  <path d="M333 383c1.248.685 1.548.749 3 1-1.248-.685-1.548-.749-3-1" style="fill:#a1a1a1;stroke:none"/>
  <path d="M336 383c1.248.685 1.548.749 3 1-1.248-.685-1.548-.749-3-1" style="fill:#696969;stroke:none"/>
  <path d="M339.667 383.333c-.445.445.611.389.666.334.445-.445-.611-.389-.666-.334" style="fill:#232323;stroke:none"/>
  <path d="m212 384 1 1z" style="fill:#555;stroke:none"/>
  <path d="m213 384 1 1z" style="fill:#858585;stroke:none"/>
  <path d="m214 384 1 1z" style="fill:#b7b7b7;stroke:none"/>
  <path d="M239.667 384.333c-.445.445.611.389.666.334.445-.445-.611-.389-.666-.334" style="fill:#afafaf;stroke:none"/>
  <path d="M241.667 384.333c-.445.445.611.389.666.334.445-.445-.611-.389-.666-.334" style="fill:#6d6d6d;stroke:none"/>
  <path d="M243.667 384.333c-.445.445.611.389.666.334.445-.445-.611-.389-.666-.334" style="fill:#292929;stroke:none"/>
  <path d="M217 385c1.248.685 1.548.749 3 1-1.248-.685-1.548-.749-3-1" style="fill:#2f2f2f;stroke:none"/>
  <path d="M220 385c1.248.685 1.548.749 3 1-1.248-.685-1.548-.749-3-1" style="fill:#676767;stroke:none"/>
  <path d="M223.667 385.333c-.445.445.611.389.666.334.445-.445-.611-.389-.666-.334" style="fill:#9f9f9f;stroke:none"/>
  <path d="M225 385c1.248.685 1.548.749 3 1-1.248-.685-1.548-.749-3-1" style="fill:#bfbfbf;stroke:none"/>
  <path d="M228 385c1.248.685 1.548.749 3 1-1.248-.685-1.548-.749-3-1" style="fill:#979797;stroke:none"/>
  <path d="M231 385c1.248.685 1.548.749 3 1-1.248-.685-1.548-.749-3-1" style="fill:#717171;stroke:none"/>
  <path d="M234 385c1.248.685 1.548.749 3 1-1.248-.685-1.548-.749-3-1" style="fill:#494949;stroke:none"/>
</svg>
